<svg width="33" height="33" viewBox="0 0 33 33" fill="none" xmlns="http://www.w3.org/2000/svg">
<path d="M16.631 1.64155C8.52539 1.64155 1.93591 8.23142 1.93591 16.3317C1.93591 24.429 8.52539 31.013 16.631 31.013C24.7249 31.013 31.3085 24.429 31.3085 16.3317C31.3085 8.23142 24.7249 1.64155 16.631 1.64155ZM16.631 32.3767C7.77465 32.3767 0.578125 25.1768 0.578125 16.3317C0.578125 7.48357 7.77465 0.286621 16.631 0.286621C25.4669 0.286621 32.6693 7.48357 32.6693 16.3317C32.6693 25.1768 25.4669 32.3767 16.631 32.3767Z" fill="white"/>
<path d="M23.9034 7.75551L18.4808 20.4985C18.1118 21.3656 16.858 21.2877 16.5991 20.3817L15.2776 15.7563C15.1827 15.4241 14.923 15.1645 14.5908 15.0695L9.96551 13.748C9.05943 13.4891 8.98158 12.2353 9.84867 11.8664L22.5917 6.4438C23.42 6.09132 24.2558 6.92718 23.9034 7.75551Z" fill="white"/>
</svg>
