<svg width="44" height="40" viewBox="0 0 44 40" fill="none" xmlns="http://www.w3.org/2000/svg">
<path d="M0 5.15774V40H20.2062V0L0 5.15774ZM9.04569 32.4319H4.28195V28.8887H9.04569V32.4319ZM9.04569 24.108H4.28195V20.5649H9.04569V24.108ZM9.04569 15.7842H4.28195V12.241H9.04569V15.7842ZM15.9258 32.4319H11.162V28.8887H15.9258V32.4319ZM15.9258 24.108H11.162V20.5649H15.9258V24.108ZM15.9258 15.7842H11.162V12.241H15.9258V15.7842Z" fill="white"/>
<path d="M43.0798 20.6341V39.9984H38.2129V34.4605C38.2129 33.0152 37.628 31.7084 36.683 30.7634C35.7379 29.8183 34.4296 29.2334 32.9859 29.2334C30.0969 29.2334 27.7573 31.5899 27.7573 34.4605V39.9984H22.8735V20.6341H43.0798Z" fill="white"/>
<path d="M22.8074 18.4454L32.9089 8.12836L43.0121 18.4454H22.8074Z" fill="white"/>
</svg>
