<svg width="60" height="36" viewBox="0 0 60 36" fill="none" xmlns="http://www.w3.org/2000/svg">
<path d="M59.3694 12.1427C60.4089 10.4462 59.8498 8.21338 59.8498 8.21338C59.8498 8.21338 57.6065 8.72877 56.5653 10.4252C55.7301 11.7863 55.924 13.474 56.0341 14.096L54.3446 16.853C54.5333 16.2799 54.6538 15.6265 54.5717 14.9451C54.3306 12.9708 52.5031 11.5696 52.5031 11.5696C52.5031 11.5696 51.067 13.3692 51.3081 15.3434C51.5143 17.0277 52.863 18.2856 53.2596 18.6228L49.8597 24.17C50.0484 23.5969 50.1707 22.9417 50.0868 22.2604C49.8457 20.2861 48.0182 18.8831 48.0182 18.8831C48.0182 18.8831 46.5821 20.6827 46.8232 22.6587C47.0293 24.3429 48.3799 25.6009 48.7747 25.9381L45.8378 30.7305C45.7871 30.8143 45.8133 30.9226 45.8972 30.975C45.9391 30.9995 45.988 31.0065 46.0317 30.996C46.0771 30.9856 46.1156 30.9576 46.1418 30.9156L46.942 29.6088C47.4801 29.8272 49.1504 30.402 50.6966 29.8394C52.566 29.158 53.5182 27.0615 53.5182 27.0615C53.5182 27.0615 51.4409 26.0691 49.5714 26.7505C49.0019 26.9584 48.5284 27.3008 48.1301 27.6712L51.4269 22.2918C51.9633 22.5102 53.6353 23.0868 55.1815 22.5224C57.0509 21.841 58.0031 19.7445 58.0031 19.7445C58.0031 19.7445 55.9258 18.7521 54.0564 19.4335C53.4868 19.6414 53.0115 19.9855 52.6132 20.3559L56.3381 14.2812C56.9409 14.0977 58.5342 13.5037 59.3694 12.1427Z" fill="white"/>
<path d="M50.5447 16.3969C51.289 13.0336 49.1645 9.70363 45.8013 8.95935C42.438 8.21507 39.1079 10.3396 38.3637 13.7028C38.3357 13.8321 38.3393 13.9579 38.3183 14.0872C36.0138 13.909 33.9417 14.171 32.0478 14.6794C27.1855 10.7676 23.7838 5.80923 21.5667 0C20.2528 5.86863 21.06 11.0367 23.9306 15.5233C18.2873 13.715 13.2154 10.7466 8.63788 6.77191C10.6785 14.1151 14.6969 19.3792 20.639 22.6167C16.9333 26.4289 12.0011 28.8662 6.72999 29.7625C4.44648 30.1503 2.09831 30.5137 0 30.7706C4.90072 34.3382 13.0861 34.1426 16.991 33.8036C18.3642 33.6848 19.7305 33.8473 21.0478 34.2561C26.6963 36.0068 34.3994 35.1664 37.4814 32.7938C41.0438 30.0508 44.7425 26.3311 43.6872 21.2103C45.6196 21.4496 47.4873 20.7962 48.8081 19.505L52.7759 19.8912L50.5447 16.3969Z" fill="white"/>
</svg>
