<svg width="55" height="40" viewBox="0 0 55 40" fill="none" xmlns="http://www.w3.org/2000/svg">
<path d="M21.3992 19.7651L16.5527 10.4421C16.5207 10.3819 15.0905 7.28837 13.7076 6.474C12.9624 7.22434 11.9303 7.68915 10.792 7.68915C9.65368 7.68915 8.62162 7.22306 7.8764 6.474C6.49352 7.28709 5.06325 10.3807 5.03124 10.4421L0.184751 19.7651C-0.155849 20.4194 -0.0239676 21.2581 0.567601 21.6986C1.32051 22.2607 2.36023 21.9982 2.7751 21.2005L5.29759 16.3463L5.97878 26.8421V38.032C5.97878 39.0051 6.67917 39.8925 7.64847 39.9898C8.76246 40.1012 9.70232 39.2292 9.70232 38.1383V26.8421H11.8804V38.032C11.8804 39.0051 12.5808 39.8925 13.5501 39.9898C14.6641 40.1012 15.6039 39.2292 15.6039 38.1383V26.8421L16.2851 16.3463L18.8076 21.2005C19.2225 21.9982 20.2622 22.2607 21.0151 21.6986C21.608 21.2581 21.7398 20.4194 21.3992 19.7651Z" fill="white"/>
<path d="M10.7933 0C9.00832 0 7.55627 1.45203 7.55627 3.23698C7.55627 5.02193 9.00832 6.47396 10.7933 6.47396C12.5782 6.47396 14.0302 5.02193 14.0302 3.23698C14.0302 1.45203 12.5782 0 10.7933 0Z" fill="white"/>
<path d="M33.9873 20.6793C33.5891 20.4245 33.059 20.5397 32.8042 20.9379L29.8016 25.6244C29.6287 25.44 29.4341 25.2787 29.2254 25.1391C28.7439 25.6039 28.0922 25.8933 27.3713 25.8933C26.6504 25.8933 25.9986 25.6039 25.5172 25.1391C25.3072 25.2787 25.1125 25.44 24.941 25.6244L21.9383 20.9379C21.6835 20.5397 21.1534 20.4232 20.7552 20.6793C20.357 20.9354 20.2405 21.4642 20.4965 21.8624L24.0805 27.4554C24.0613 27.6014 24.5888 33.3058 24.5888 33.3058V38.9231C24.5888 39.5185 25.0716 40 25.6657 40C26.2611 40 26.7426 39.5173 26.7426 38.9231V33.3058H28.0025V38.9231C28.0025 39.5185 28.4852 40 29.0794 40C29.6748 40 30.1562 39.5173 30.1562 38.9231V33.3058C30.1562 33.3058 30.6838 27.6027 30.6646 27.4554L34.2486 21.8624C34.5008 21.4642 34.3856 20.9341 33.9873 20.6793Z" fill="white"/>
<path d="M27.37 21.1109C26.2099 21.1109 25.265 22.0559 25.265 23.216C25.265 24.3773 26.2099 25.3223 27.37 25.3223C28.5314 25.3223 29.4764 24.3773 29.4764 23.216C29.4764 22.0559 28.5314 21.1109 27.37 21.1109Z" fill="white"/>
<path d="M54.18 19.7636L49.3335 10.4406C49.3015 10.3805 47.8712 7.2869 46.4884 6.47253C45.7431 7.22288 44.7111 7.68769 43.5728 7.68769C42.4344 7.68769 41.4024 7.2216 40.6572 6.47253C39.2743 7.28562 37.844 10.3792 37.812 10.4406L32.9655 19.7636C32.6249 20.4179 32.7568 21.2566 33.3484 21.6971C34.1013 22.2579 35.141 21.9967 35.5559 21.199L36.8978 18.6189L34.9041 32.6437H38.7608V38.0305C38.7608 39.0037 39.4613 39.8923 40.4306 39.9883C41.5445 40.0997 42.4844 39.2277 42.4844 38.1368V32.6437H44.6624V38.0305C44.6624 39.0037 45.3628 39.891 46.3321 39.9883C47.4461 40.0997 48.386 39.2277 48.386 38.1368V32.6437H52.2427L50.249 18.6189L51.591 21.199C52.0058 21.9967 53.0456 22.2592 53.7985 21.6971C54.3887 21.2566 54.5206 20.4179 54.18 19.7636Z" fill="white"/>
<path d="M43.5741 6.47396C45.3618 6.47396 46.8111 5.02471 46.8111 3.23698C46.8111 1.44924 45.3618 0 43.5741 0C41.7863 0 40.3371 1.44924 40.3371 3.23698C40.3371 5.02471 41.7863 6.47396 43.5741 6.47396Z" fill="white"/>
</svg>
