<svg width="35" height="40" viewBox="0 0 35 40" fill="none" xmlns="http://www.w3.org/2000/svg">
<path d="M17.5 25.7641C19.9728 25.7605 22.3432 24.7695 24.0918 23.0082C25.8403 21.247 26.8242 18.8592 26.8277 16.3684C26.8277 9.19625 18.3345 0.566587 17.9778 0.200522C17.9153 0.136983 17.8408 0.0865512 17.7588 0.0521352C17.6768 0.0177191 17.5888 0 17.5 0C17.4112 0 17.3232 0.0177191 17.2412 0.0521352C17.1592 0.0865512 17.0847 0.136983 17.0222 0.200522C16.6655 0.566587 8.17228 9.19625 8.17228 16.3684C8.17584 18.8592 9.15973 21.247 10.9082 23.0082C12.6568 24.7695 15.0272 25.7605 17.5 25.7641ZM20.192 21.0188C21.2471 20.4376 22.091 19.5329 22.6013 18.436C22.6772 18.2724 22.8144 18.1459 22.9829 18.0842C23.0664 18.0537 23.1549 18.04 23.2436 18.0439C23.3323 18.0479 23.4193 18.0694 23.4998 18.1072C23.5802 18.1451 23.6524 18.1985 23.7124 18.2644C23.7723 18.3304 23.8187 18.4076 23.849 18.4916C23.8793 18.5757 23.8929 18.6649 23.889 18.7542C23.8851 18.8436 23.8637 18.9312 23.8262 19.0122C23.1997 20.369 22.1632 21.4914 20.865 22.2187C20.707 22.3086 20.5201 22.3316 20.3453 22.2826C20.1705 22.2337 20.0221 22.1168 19.9329 21.9577C19.8436 21.7986 19.8208 21.6103 19.8694 21.4342C19.918 21.2581 20.034 21.1087 20.192 21.0188Z" fill="white"/>
<path d="M7.14933 34.8412C7.23809 34.9604 7.2854 35.1057 7.28393 35.2547V39.3221C7.28393 39.5019 7.35483 39.6743 7.48104 39.8014C7.60726 39.9286 7.77843 40 7.95692 40H14.6869C14.8654 40 15.0365 39.9286 15.1628 39.8014C15.289 39.6743 15.3599 39.5019 15.3599 39.3221V31.0449C15.3601 30.5339 15.2603 30.0278 15.0664 29.5555C14.8724 29.0833 14.5879 28.6542 14.2292 28.2927L9.01353 23.0525C8.76079 22.7853 8.4208 22.619 8.05605 22.5841C7.6913 22.5492 7.32632 22.6482 7.02819 22.8627C6.75024 23.0748 6.55722 23.3804 6.48433 23.7238C6.41144 24.0673 6.46354 24.4257 6.63112 24.7337C8.19859 26.3112 9.58678 28.0597 10.77 29.9467C8.23465 28.3121 5.94168 26.3242 3.95933 24.0422C3.96061 24.0242 3.96061 24.0061 3.95933 23.988C3.87484 23.8926 3.81885 23.7751 3.79781 23.6491L2.82197 16.2735C2.79288 15.9294 2.64615 15.6062 2.40682 15.3589C2.16748 15.1117 1.85038 14.9557 1.50963 14.9177C1.30986 14.904 1.10948 14.9331 0.921753 15.0033C0.734025 15.0734 0.563237 15.183 0.420703 15.3246C0.278169 15.4663 0.167143 15.6368 0.0949794 15.8249C0.022816 16.0131 -0.00883729 16.2145 0.00211657 16.4159L0.540513 26.198L7.14933 34.8412Z" fill="white"/>
<path d="M20.7708 28.2927C20.4121 28.6542 20.1276 29.0833 19.9336 29.5555C19.7397 30.0278 19.6399 30.5339 19.6401 31.0449V39.3221C19.6401 39.5019 19.711 39.6743 19.8372 39.8014C19.9635 39.9286 20.1346 40 20.3131 40H27.0431C27.2216 40 27.3927 39.9286 27.519 39.8014C27.6452 39.6743 27.7161 39.5019 27.7161 39.3221V35.2547C27.7146 35.1057 27.7619 34.9604 27.8507 34.8412L34.4595 26.198L34.9979 16.4159C35.0088 16.2145 34.9772 16.0131 34.905 15.8249C34.8329 15.6368 34.7218 15.4663 34.5793 15.3246C34.4368 15.183 34.266 15.0734 34.0782 15.0033C33.8905 14.9331 33.6901 14.904 33.4904 14.9177C33.1496 14.9557 32.8325 15.1117 32.5932 15.3589C32.3538 15.6062 32.2071 15.9294 32.178 16.2735L31.2426 23.6491C31.2215 23.7751 31.1655 23.8926 31.0811 23.988C31.0798 24.0061 31.0798 24.0242 31.0811 24.0422C29.087 26.3279 26.7802 28.316 24.23 29.9467C25.4103 28.0553 26.7962 26.3023 28.3621 24.7201C28.5297 24.4122 28.5818 24.0537 28.5089 23.7103C28.4361 23.3668 28.243 23.0612 27.9651 22.8491C27.6643 22.6252 27.2921 22.5207 26.9196 22.5557C26.5471 22.5907 26.2006 22.7628 25.9461 23.039L20.7708 28.2927Z" fill="white"/>
</svg>
