<svg width="41" height="40" viewBox="0 0 41 40" fill="none" xmlns="http://www.w3.org/2000/svg">
<path d="M40.4603 14.4783C39.0294 10.0839 35.0798 7.20579 30.7202 6.90709C29.0887 2.86404 25.1269 0 20.4997 0C15.8726 0 11.9089 2.86404 10.2774 6.90709C5.91951 7.20579 1.96824 10.0839 0.539082 14.4783C-0.890071 18.871 0.614764 23.5185 3.9606 26.3176C2.8993 30.5469 4.41997 35.1891 8.16358 37.9038C10.1155 39.32 12.3806 40 14.6264 40C16.6875 40 18.7274 39.4166 20.4997 38.3097C22.2703 39.4166 24.3119 40 26.3729 40C28.617 40 30.8839 39.3182 32.8358 37.9038C35.2171 36.1765 36.7836 33.6253 37.2447 30.7226C37.4823 29.2291 37.4066 27.7355 37.0458 26.3105C40.3881 23.5115 41.8894 18.8675 40.4603 14.4783ZM29.4108 11.0028C29.4108 13.8581 28.0327 16.3743 25.9312 18.0031C24.5707 18.054 23.2383 18.3633 21.9887 18.9045C22.1172 17.5357 21.9904 16.1792 21.6261 14.8965C22.5255 12.3927 24.5003 10.3018 27.2266 9.41622C27.8743 9.20713 28.5272 9.10168 29.1767 9.04194C29.321 9.67624 29.4108 10.3281 29.4108 11.0028ZM21.8514 34.2297C21.4518 34.778 20.9925 35.2541 20.5014 35.6828C20.0104 35.2541 19.5492 34.778 19.1497 34.2297C17.4566 31.9034 17.094 29.034 17.8579 26.4704C18.9051 25.6429 19.8027 24.622 20.5014 23.436C21.2002 24.622 22.0978 25.6411 23.145 26.4704C23.9071 29.034 23.5445 31.9034 21.8514 34.2297ZM11.8244 9.04371C12.4757 9.10169 13.1286 9.20714 13.7746 9.41799C16.4991 10.3018 18.4739 12.3945 19.3733 14.8965C19.0089 16.1792 18.8805 17.5375 19.0107 18.9062C17.747 18.3615 16.4146 18.0628 15.0788 18.0119C12.972 16.383 11.5904 13.8616 11.5904 11.0028C11.5921 10.3281 11.6819 9.67626 11.8244 9.04371ZM14.3853 20.1502C15.4941 20.8917 16.749 21.4311 18.092 21.7333C17.182 22.7647 16.485 23.9385 16.0239 25.1913C13.8221 26.6883 10.9937 27.2207 8.26918 26.3386C7.62324 26.1278 7.02656 25.8379 6.46687 25.5041C6.72383 24.9049 7.03538 24.3215 7.43315 23.7733C9.11927 21.461 11.7223 20.2311 14.3853 20.1502ZM24.9878 25.1983C24.5196 23.9192 23.8121 22.7507 22.9092 21.7333C24.2521 21.4329 25.5035 20.8935 26.6141 20.152C29.2788 20.2328 31.8819 21.461 33.5662 23.7733C33.9658 24.3215 34.2773 24.9049 34.5325 25.5041C33.9711 25.8379 33.3761 26.1278 32.7302 26.3386C30.0109 27.2189 27.1878 26.6883 24.9878 25.1983ZM20.5014 2.10852C23.9634 2.10852 26.9379 4.11158 28.4128 6.99846C27.7986 7.08632 27.1843 7.21634 26.5736 7.41489C23.9159 8.27762 21.8197 10.0628 20.5014 12.2961C19.1832 10.0628 17.087 8.27762 14.4293 7.41489C13.8203 7.21634 13.2043 7.08807 12.5901 6.99846C14.0632 4.10982 17.0377 2.10852 20.5014 2.10852ZM2.54905 15.1302C3.61915 11.8392 6.44401 9.59369 9.65608 9.09116C9.5452 9.71317 9.47829 10.351 9.47829 11.0046C9.47829 13.7949 10.5326 16.3374 12.2522 18.279C9.71769 18.8412 7.36802 20.2785 5.72591 22.5363C5.34926 23.0547 5.03596 23.5976 4.7614 24.1529C2.46806 21.8599 1.47894 18.4177 2.54905 15.1302ZM9.40616 36.1977C6.60593 34.1665 5.37741 30.7999 5.8843 27.6003C6.43344 27.8884 7.00723 28.145 7.6162 28.3435C8.74438 28.709 9.88664 28.8847 11.0131 28.8847C12.5461 28.8847 14.0315 28.535 15.4044 27.9376C15.1509 30.524 15.7934 33.2071 17.4408 35.4702C17.8192 35.9903 18.2451 36.4507 18.6921 36.8829C15.7986 38.3553 12.2099 38.2324 9.40616 36.1977ZM31.595 36.1977C28.793 38.2324 25.2025 38.3553 22.309 36.8811C22.7561 36.4489 23.182 35.9886 23.5586 35.4685C25.1585 33.2704 25.8643 30.6171 25.6003 27.9376C26.9731 28.5332 28.4551 28.8812 29.9845 28.8812C31.111 28.8812 32.255 28.7072 33.3832 28.3417C33.9921 28.1432 34.5659 27.8884 35.1151 27.5985C35.6237 30.7999 34.397 34.1665 31.595 36.1977ZM35.2752 22.5346C33.6789 20.3418 31.3803 18.8535 28.7525 18.2736C30.4703 16.3338 31.5211 13.7913 31.5211 11.0046C31.5211 10.351 31.4524 9.71493 31.3433 9.09116C34.5554 9.59369 37.3802 11.8392 38.4539 15.1302C39.5222 18.416 38.5349 21.8564 36.2415 24.1476C35.9652 23.5906 35.6501 23.0477 35.2752 22.5346Z" fill="white"/>
</svg>
