<svg width="60" height="34" viewBox="0 0 60 34" fill="none" xmlns="http://www.w3.org/2000/svg">
<path d="M43.9312 1.4801C43.6399 1.4801 43.355 1.51224 43.068 1.52723L44.1089 5.77253C50.5262 5.86892 55.7183 11.1102 55.7183 17.551C55.7183 24.0518 50.4298 29.3402 43.9312 29.3402C37.4304 29.3402 32.142 24.0518 32.142 17.551C32.142 8.68983 24.9322 1.4801 16.071 1.4801C7.20975 1.4801 0 8.68983 0 17.551C0 26.4143 7.20975 33.6241 16.071 33.6241C18.4678 33.6241 20.7747 33.11 22.923 32.0926C23.9919 31.5871 24.4502 30.3105 23.9447 29.2395C23.4392 28.1707 22.1583 27.7166 21.0916 28.2178C19.5195 28.9632 17.8295 29.3381 16.0688 29.3381C9.56801 29.3381 4.28172 24.0497 4.28172 17.5489C4.28172 11.0503 9.57015 5.76181 16.0688 5.76181C22.5674 5.76181 27.8559 11.0503 27.8559 17.5489C27.8559 26.4122 35.0657 33.622 43.929 33.622C52.7902 33.622 60 26.4122 60 17.5489C60.0021 8.68988 52.7924 1.4801 43.9312 1.4801Z" fill="white"/>
<path d="M40.4292 0L33.4572 7.5182L42.8367 9.83793L40.4292 0Z" fill="white"/>
</svg>
