<svg width="40" height="40" viewBox="0 0 40 40" fill="none" xmlns="http://www.w3.org/2000/svg">
<path d="M20 0L0 20L20 40L40 20L20 0ZM13.6353 14.9114H26.3663C27.4468 14.9114 28.3235 15.7881 28.3235 16.8686C28.3235 17.949 27.4468 18.8257 26.3663 18.8257H13.6353C12.5548 18.8257 11.6781 17.949 11.6781 16.8686C11.6781 15.7881 12.5548 14.9114 13.6353 14.9114ZM26.3663 25.0885H13.6353C12.5548 25.0885 11.6781 24.2119 11.6781 23.1314C11.6781 22.0509 12.5548 21.1743 13.6353 21.1743H26.3663C27.4468 21.1743 28.3235 22.0509 28.3235 23.1314C28.3235 24.2119 27.4468 25.0885 26.3663 25.0885Z" fill="white"/>
</svg>
