<svg width="25" height="40" viewBox="0 0 25 40" fill="none" xmlns="http://www.w3.org/2000/svg">
<path d="M16.8649 30.3018H11.9994V25.4364C11.9994 24.546 11.2776 23.8254 10.3885 23.8254C9.49941 23.8254 8.77758 24.546 8.77758 25.4364V30.3018H3.91219C3.02311 30.3018 2.30127 31.0224 2.30127 31.9127C2.30127 32.8031 3.02311 33.5236 3.91219 33.5236H8.77758V38.3891C8.77758 39.2794 9.49941 40 10.3885 40C11.2776 40 11.9994 39.2794 11.9994 38.3891V33.5236H16.8649C17.754 33.5236 18.4758 32.8031 18.4758 31.9127C18.4758 31.0236 17.754 30.3018 16.8649 30.3018Z" fill="white"/>
<path d="M10.3886 5.35083C4.65038 5.35083 0 10.0025 0 15.7394C0 21.4776 4.65164 26.128 10.3886 26.128C16.1255 26.128 20.7771 21.4763 20.7771 15.7394C20.7771 10.0025 16.1255 5.35083 10.3886 5.35083ZM14.9384 19.6328H5.83756C5.09561 19.6328 4.49443 19.0316 4.49443 18.2897C4.49443 17.5477 5.09561 16.9466 5.83756 16.9466H14.9384C15.6804 16.9466 16.2801 17.5477 16.2801 18.2897C16.2801 19.0316 15.6804 19.6328 14.9384 19.6328ZM14.9384 14.5322H5.83756C5.09561 14.5322 4.49443 13.931 4.49443 13.1891C4.49443 12.4471 5.09561 11.846 5.83756 11.846H14.9384C15.6804 11.846 16.2801 12.4471 16.2801 13.1891C16.2801 13.931 15.6804 14.5322 14.9384 14.5322Z" fill="white"/>
<path d="M23.9902 6.65241L23.0822 1.33929C23.0797 1.32294 23.0696 1.31162 23.0659 1.29527C23.0332 1.12927 22.9779 0.969558 22.8936 0.81991C22.8848 0.803562 22.8722 0.789726 22.8621 0.773378C22.7804 0.638821 22.6773 0.515591 22.5541 0.406185C22.5415 0.396124 22.5327 0.383558 22.5201 0.37224C22.5138 0.36721 22.5088 0.360921 22.5025 0.355891C22.3767 0.255288 22.2384 0.18359 22.0963 0.125743C22.0686 0.114425 22.0435 0.103115 22.0145 0.094312C21.8574 0.0402376 21.6964 0.0125713 21.5329 0.00754113C21.5191 0.00754113 21.5065 0 21.4927 0H16.4663C15.5772 0 14.8554 0.720562 14.8554 1.6109C14.8554 2.50125 15.5772 3.22183 16.4663 3.22183H18.1275L14.0418 8.29603C13.4834 8.98893 13.5928 10.0038 14.2857 10.5609C14.5837 10.801 14.9396 10.9167 15.2942 10.9167C15.7658 10.9167 16.2324 10.7118 16.5493 10.3156L20.5056 5.40367L20.8123 7.19567C20.9469 7.98038 21.6272 8.53496 22.3981 8.53496C22.4886 8.53496 22.5792 8.52741 22.6723 8.51232C23.5513 8.36267 24.1399 7.53017 23.9902 6.65241Z" fill="white"/>
</svg>
