<svg width="47" height="40" viewBox="0 0 47 40" fill="none" xmlns="http://www.w3.org/2000/svg">
<path d="M47 28.5936C47 26.8078 45.8454 25.2997 44.2461 24.7316V10.5228L47 9.39185L23.5 0L0 9.39185L23.5 18.7838L41.4922 11.6243V24.7316C39.8929 25.2997 38.7383 26.8078 38.7383 28.5936C38.7383 30.2285 39.7077 31.6319 41.0976 32.2951L38.8096 39.1321L41.421 40L42.8691 35.6724L44.3173 40L46.9287 39.1321L44.6407 32.2951C46.0306 31.632 47 30.2286 47 28.5936Z" fill="white"/>
<path d="M23.5 21.7399L11.1074 16.7832V20.3643C11.1074 24.274 16.435 27.2221 23.5 27.2221C30.565 27.2221 35.8926 24.274 35.8926 20.3643V16.7832L23.5 21.7399Z" fill="white"/>
</svg>
