<svg width="40" height="40" viewBox="0 0 40 40" fill="none" xmlns="http://www.w3.org/2000/svg">
<path d="M38.7275 19.4039L0.340393 19.3771C0.340393 25.0721 2.96416 30.2022 6.92283 33.6941C8.08829 34.7213 8.79587 36.1692 8.78546 37.7226V37.7479V38.1254C8.78546 39.1601 9.62386 40 10.66 40H28.4153C29.4499 40 30.2899 39.1616 30.2899 38.1254V37.7479C30.2899 37.7389 30.2899 37.7315 30.2899 37.7226C30.2705 36.2584 30.7774 34.8669 31.8924 33.9185C36.0027 30.4237 38.7275 25.2222 38.7275 19.4039Z" fill="white"/>
<path d="M38.6933 17.1874C38.9222 16.4962 39.0768 15.7693 39.0768 15.0022C39.0768 11.1491 35.9521 8.02436 32.099 8.02436C32.0811 8.02436 32.0648 8.02884 32.0455 8.03033C32.0618 7.8564 32.0975 7.68842 32.0975 7.51003C32.0975 4.42694 29.5986 1.92805 26.5155 1.92805C25.9878 1.92805 25.4883 2.02467 25.0037 2.16143C23.5707 0.825025 21.6516 0 19.5377 0C17.4223 0 15.5047 0.825025 14.0717 2.16143C13.587 2.02467 13.0876 1.92805 12.5598 1.92805C9.47674 1.92805 6.97785 4.42694 6.97785 7.51003C6.97785 7.68842 7.01353 7.8564 7.02988 8.03033C7.01205 8.03033 6.99569 8.02436 6.97785 8.02436C3.12472 8.02436 0 11.1491 0 15.0022C0 15.7603 0.151614 16.4784 0.376083 17.1622L38.6933 17.1874Z" fill="white"/>
</svg>
