<svg width="65" height="41" viewBox="0 0 65 41" fill="none" xmlns="http://www.w3.org/2000/svg">
<path d="M46.7511 4.55715C46.7511 2.04083 44.7103 0 42.1955 0C39.6791 0 37.6383 2.03932 37.6383 4.55715C37.6383 2.04083 35.599 0 33.0826 0C30.5663 0 28.5255 2.03932 28.5255 4.55715C28.5255 4.71414 28.533 4.87113 28.5497 5.02359C28.7927 9.00261 32.1196 12.7824 37.6383 16.2904C43.1585 12.7824 46.4839 9.00261 46.7269 5.02359C46.742 4.86962 46.7511 4.71414 46.7511 4.55715Z" fill="white"/>
<path d="M1 40H15.1922L21.2211 30.4117L29.0599 40L37.4995 22.0341L46.5911 33.627L53.174 25.0878L58.4633 38.1675L63.4355 31.017" stroke="white" stroke-width="1.2" stroke-miterlimit="10" stroke-linecap="round" stroke-linejoin="round"/>
</svg>
