<svg width="60" height="32" viewBox="0 0 60 32" fill="none" xmlns="http://www.w3.org/2000/svg">
<path d="M59.6508 15.007C59.1107 14.3924 46.2409 0 30 0C13.7591 0 0.887785 14.3924 0.349216 15.007C-0.116405 15.5347 -0.116405 16.3262 0.349216 16.8524C0.889337 17.467 13.7607 31.8594 30 31.8594C46.2424 31.8594 59.1122 17.467 59.6508 16.8524C60.1164 16.3247 60.1164 15.5347 59.6508 15.007ZM29.9984 29.0641C17.3118 29.0641 6.41938 19.061 3.32145 15.9289C6.41783 12.7968 17.3118 2.79371 29.9984 2.79371C42.6882 2.79371 53.5806 12.7999 56.677 15.9305C53.5853 19.061 42.7099 29.0641 29.9984 29.0641Z" fill="white"/>
<path d="M29.2255 8.54418C28.6372 9.34505 27.6097 9.70515 26.9284 10.4393C25.9009 11.5475 26.3138 12.9753 26.1943 14.484C26.0608 16.2859 23.0699 17.1147 22.6834 12.8558C22.6167 12.1217 21.268 12.5485 20.5742 12.7891C19.8804 13.0296 19.1991 13.3633 18.4649 13.337C18.0505 13.3106 17.6501 13.1771 17.3164 12.9365C18.6108 7.36925 23.4968 3.19108 29.3853 2.91016C29.3186 3.36336 29.2922 3.83206 29.3589 4.31165C29.5452 5.72714 30.1598 7.23579 29.2255 8.54418Z" fill="white"/>
<path d="M23.5387 26.1137C23.5526 26.4614 23.4455 26.795 23.2453 27.0744C19.7749 24.9791 17.3707 21.3069 17.0106 17.062C17.7587 17.2095 18.5456 17.1831 19.4008 17.1427C20.3088 17.1024 21.2431 17.0899 22.0844 17.4361C22.4708 17.5959 22.8852 17.9172 22.8728 18.344C22.8588 18.8112 22.3653 19.0921 21.9788 19.359C21.4589 19.7191 21.0181 20.2267 20.8039 20.8273C20.5773 21.428 20.5773 22.1093 20.8582 22.6836C21.1779 23.351 21.819 23.8058 22.3932 24.2853C22.9504 24.751 23.5107 25.3656 23.5387 26.1137Z" fill="white"/>
<path d="M43.0436 15.9273C43.0436 22.9893 37.4236 28.7428 30.4144 28.957C30.4284 28.5969 30.5882 28.2353 30.8009 27.9419C31.4683 27.0479 32.6028 26.6599 33.6846 26.407C34.7788 26.154 35.9134 25.9661 36.8353 25.3251C38.1841 24.3908 38.7304 22.5485 38.4107 20.9468C38.077 19.3311 36.9952 17.9435 35.648 16.9952C35.274 16.7143 34.8595 16.4752 34.5662 16.1136C34.2729 15.7535 34.099 15.246 34.2729 14.8192C34.5398 14.1782 35.3547 14.0307 36.0485 14.0183C37.7169 13.978 39.3854 14.1254 41.0151 14.4715C41.6561 14.605 42.3374 14.7649 42.9909 14.7649C43.0297 15.1529 43.0436 15.5393 43.0436 15.9273Z" fill="white"/>
</svg>
