<svg width="48" height="40" viewBox="0 0 48 40" fill="none" xmlns="http://www.w3.org/2000/svg">
<path d="M0.936958 29.4384C1.90206 29.4384 2.36825 29.9186 3.10884 30.7652C3.87437 31.6399 4.82862 32.7313 6.69178 32.7313C8.55495 32.7313 9.50757 31.6415 10.2731 30.7652C11.0137 29.9186 11.4783 29.4384 12.445 29.4384C13.4101 29.4384 13.8763 29.9186 14.6169 30.7652C15.3824 31.6399 16.335 32.7313 18.1997 32.7313C20.0629 32.7313 21.017 31.6415 21.7826 30.7652C22.5232 29.9186 22.9878 29.4384 23.9544 29.4384C24.9211 29.4384 25.3857 29.9186 26.1263 30.7652C26.8919 31.6399 27.8445 32.7313 29.7077 32.7313C31.5724 32.7313 32.5266 31.6415 33.2921 30.7652C34.0327 29.9186 34.4973 29.4384 35.464 29.4384C36.4322 29.4384 36.9 29.9186 37.6405 30.7652C38.4061 31.6415 39.3587 32.7297 41.2234 32.7297C43.0881 32.7297 44.0423 31.6415 44.8079 30.7652C45.55 29.9171 46.0162 29.4384 46.986 29.4384C47.5021 29.4384 47.9215 29.019 47.9215 28.5029C47.9215 27.9869 47.5021 27.5674 46.986 27.5674C45.1213 27.5674 44.1671 28.6557 43.4016 29.532C42.6594 30.3801 42.1932 30.8603 41.2234 30.8603C40.2552 30.8603 39.7891 30.3801 39.0485 29.5335C38.2829 28.6557 37.3287 27.5674 35.464 27.5674C33.6008 27.5674 32.6467 28.6557 31.8827 29.532C31.1421 30.3801 30.6759 30.8603 29.7061 30.8603C28.7395 30.8603 28.2748 30.3801 27.5358 29.5335C26.7702 28.6588 25.8176 27.5674 23.9544 27.5674C22.0928 27.5674 21.1387 28.6557 20.3731 29.532C19.6325 30.3801 19.1679 30.8603 18.1997 30.8603C17.2331 30.8603 16.7669 30.3801 16.0278 29.532C15.2623 28.6573 14.3097 27.5674 12.4465 27.5674C10.5833 27.5674 9.63072 28.6573 8.86519 29.5335C8.1246 30.3801 7.66149 30.8603 6.69483 30.8603C5.72816 30.8603 5.26201 30.3801 4.52142 29.532C3.75589 28.6573 2.80326 27.5674 0.940098 27.5674C0.424025 27.5674 0.00465595 27.9853 0.00465595 28.5029C0.00153768 29.019 0.420884 29.4384 0.936958 29.4384Z" fill="white"/>
<path d="M46.9814 34.8361C45.1166 34.8361 44.1624 35.9244 43.3969 36.8006C42.6548 37.6488 42.1885 38.129 41.2187 38.129C40.2505 38.129 39.7844 37.6488 39.0438 36.8022C38.2783 35.9244 37.3241 34.8361 35.4593 34.8361C33.5962 34.8361 32.642 35.9244 31.878 36.8006C31.1374 37.6488 30.6713 38.129 29.7015 38.129C28.7348 38.129 28.2701 37.6488 27.5311 36.8022C26.7656 35.926 25.813 34.8361 23.9498 34.8361C22.0882 34.8361 21.134 35.9244 20.3685 36.8006C19.6279 37.6488 19.1633 38.129 18.1951 38.129C17.2284 38.129 16.7622 37.6488 16.0232 36.8006C15.2576 35.9244 14.305 34.8361 12.4419 34.8361C10.5787 34.8361 9.62607 35.926 8.86053 36.8022C8.11994 37.6488 7.65683 38.129 6.69017 38.129C5.72351 38.129 5.25736 37.6488 4.51677 36.8006C3.75123 35.9244 2.79861 34.8361 0.935442 34.8361C0.419369 34.8361 0 35.2555 0 35.7716C0 36.2877 0.419369 36.7071 0.935442 36.7071C1.90055 36.7071 2.36674 37.1873 3.10732 38.0339C3.87286 38.9086 4.82701 40 6.69017 40C8.55334 40 9.50596 38.9102 10.2715 38.0339C11.0121 37.1873 11.4767 36.7071 12.4434 36.7071C13.4085 36.7071 13.8747 37.1873 14.6153 38.0339C15.3808 38.9086 16.3335 40 18.1982 40C20.0614 40 21.0155 38.9102 21.7811 38.0339C22.5216 37.1873 22.9863 36.7071 23.9529 36.7071C24.9196 36.7071 25.3842 37.1873 26.1248 38.0339C26.8903 38.9086 27.843 40 29.7061 40C31.5709 40 32.5251 38.9102 33.2906 38.0339C34.0312 37.1873 34.4958 36.7071 35.4625 36.7071C36.4307 36.7071 36.8984 37.1873 37.639 38.0355C38.4046 38.9101 39.3572 40 41.2219 40C43.0866 40 44.0408 38.9117 44.8063 38.0355C45.5485 37.1873 46.0146 36.7071 46.9844 36.7071C47.5005 36.7071 47.9199 36.2892 47.9199 35.7716C47.9153 35.2555 47.4974 34.8361 46.9814 34.8361Z" fill="white"/>
<path d="M29.1667 0.00507799C25.9549 -0.213201 18.128 6.67817 18.128 6.67817L7.69739 1.56421L13.9963 8.92332L7.69739 16.2824L18.1124 11.605C18.1124 11.605 26.0016 18.1066 29.1667 17.8416C32.7059 17.5609 40.2054 12.4781 40.221 8.92332C40.221 5.3685 32.7059 0.254539 29.1667 0.00507799ZM33.7193 7.97228C32.9709 7.97228 32.3473 7.36422 32.3473 6.61584C32.3473 5.85186 32.9709 5.24379 33.7193 5.24379C34.4833 5.24379 35.0914 5.85186 35.0914 6.61584C35.0914 7.36422 34.4833 7.97228 33.7193 7.97228Z" fill="white"/>
</svg>
