<svg width="29" height="40" viewBox="0 0 29 40" fill="none" xmlns="http://www.w3.org/2000/svg">
<path d="M8.25727 24.1023C9.98461 24.1023 11.5851 23.5696 12.9091 22.6626V34.5479H15.389V22.6626C16.713 23.5696 18.3148 24.1023 20.0408 24.1023C24.5997 24.1023 28.2956 20.4064 28.2956 15.8475C28.2956 11.565 25.0344 8.04497 20.8586 7.63418C20.8938 7.35655 20.9428 7.08269 20.9428 6.79501C20.9428 3.04261 17.9002 0 14.1478 0C10.3954 0 7.35282 3.04261 7.35282 6.79501C7.35282 7.08269 7.40301 7.35529 7.43693 7.63418C3.26244 8.04497 0 11.565 0 15.8475C0.00251248 20.4064 3.69837 24.1023 8.25727 24.1023Z" fill="white"/>
<path d="M22.5056 35.3934H5.79261C3.81655 35.3934 2.0842 36.7287 1.5817 38.6382L1.22363 40H27.0734L26.7153 38.6382C26.214 36.7287 24.4817 35.3934 22.5056 35.3934Z" fill="white"/>
</svg>
