<svg width="42" height="42" viewBox="0 0 42 42" fill="none" xmlns="http://www.w3.org/2000/svg">
<path d="M30.6709 18.1302V6.70951L20.7806 1L10.8903 6.70951V18.1302L20.7806 23.8414L30.6709 18.1302Z" stroke="white" stroke-miterlimit="10"/>
<path d="M20.7807 35.2904V23.8698L10.8904 18.1586L1 23.8698V35.2904L10.8904 40.9999L20.7807 35.2904Z" stroke="white" stroke-miterlimit="10"/>
<path d="M20.7806 35.2904V23.8698L30.671 18.1586L40.5614 23.8698V35.2904L30.671 40.9999L20.7806 35.2904Z" stroke="white" stroke-miterlimit="10"/>
<path d="M30.6709 6.70951L20.7806 12.4207L10.8903 6.70951L20.7806 1L30.6709 6.70951Z" fill="white"/>
<path d="M10.8904 41V29.5793L1 23.8698V35.2905L10.8904 41Z" fill="white"/>
<path d="M30.6709 41V29.5793L40.5613 23.8698V35.2905L30.6709 41Z" fill="white"/>
</svg>
