<svg width="40" height="40" viewBox="0 0 40 40" fill="none" xmlns="http://www.w3.org/2000/svg">
<path d="M20.0012 29.2213C25.094 29.2213 29.2225 25.0928 29.2225 20C29.2225 14.9072 25.094 10.7787 20.0012 10.7787C14.9084 10.7787 10.7799 14.9072 10.7799 20C10.7799 25.0928 14.9084 29.2213 20.0012 29.2213Z" fill="white"/>
<path d="M20.0011 32.622C26.972 32.622 32.6231 26.971 32.6231 20C32.6231 13.0291 26.972 7.37805 20.0011 7.37805C13.0302 7.37805 7.37915 13.0291 7.37915 20C7.37915 26.971 13.0302 32.622 20.0011 32.622Z" stroke="white" stroke-miterlimit="10"/>
<path d="M20.0011 4.46228C20.5982 4.46228 21.1857 4.5033 21.766 4.56965L20.0011 0L18.2362 4.56965C18.8165 4.5033 19.4027 4.46228 20.0011 4.46228Z" fill="white"/>
<path d="M32.1586 10.342L34.1431 5.85803L29.6591 7.84247C30.5843 8.57834 31.4227 9.41674 32.1586 10.342Z" fill="white"/>
<path d="M40.0012 20L35.4327 18.2352C35.4979 18.8154 35.5401 19.4017 35.5401 20C35.5401 20.5972 35.4991 21.1847 35.4327 21.7649L40.0012 20Z" fill="white"/>
<path d="M10.3419 7.84247L5.85791 5.85803L7.84237 10.342C8.57824 9.41674 9.41664 8.57834 10.3419 7.84247Z" fill="white"/>
<path d="M20.0011 35.5377C19.4039 35.5377 18.8165 35.4967 18.2362 35.4304L20.0011 40L21.766 35.4304C21.1845 35.4967 20.5982 35.5377 20.0011 35.5377Z" fill="white"/>
<path d="M4.46228 20C4.46228 19.4029 4.50328 18.8154 4.56963 18.2352L0 20L4.56963 21.7649C4.50448 21.1847 4.46228 20.5984 4.46228 20Z" fill="white"/>
<path d="M29.6591 32.1588L34.1431 34.1432L32.1586 29.6592C31.4227 30.5844 30.5843 31.4229 29.6591 32.1588Z" fill="white"/>
<path d="M7.84237 29.6592L5.85791 34.1432L10.3419 32.1588C9.41664 31.4217 8.57824 30.5844 7.84237 29.6592Z" fill="white"/>
</svg>
