<svg width="247" height="31" viewBox="0 0 247 31" fill="none" xmlns="http://www.w3.org/2000/svg">
<path d="M3.53716 19.86V27.5134H4.97756C6.96493 27.5134 8.29593 26.167 8.29593 23.7398V23.6512C8.29593 21.2241 6.9467 19.86 4.97756 19.86H3.53716ZM0.929871 17.5746H4.99579C8.64235 17.5746 10.9944 20.0194 10.9944 23.5981V23.7575C10.9944 27.3362 8.64235 29.7988 4.99579 29.7988H0.929871V17.5568V17.5746Z" fill="white"/>
<path d="M12.3801 17.5746H20.4754V19.8777H14.9691V22.4997H19.8191V24.7851H14.9691V27.5311H20.5666V29.8165H12.3801V17.5746Z" fill="white"/>
<path d="M20.986 17.5746H23.812L26.474 26.0075L29.136 17.5746H31.8892L27.6409 29.8697H25.2342L20.986 17.5746Z" fill="white"/>
<path d="M32.7826 17.5746H40.8962V19.8777H35.3717V22.4997H40.2216V24.7851H35.3717V27.5311H40.9691V29.8165H32.7826V17.5746Z" fill="white"/>
<path d="M42.3549 17.5746H44.9622V27.478H50.0491V29.8165H42.3549V17.5746Z" fill="white"/>
<path d="M58.7097 23.7575V23.6335C58.7097 21.2241 57.4516 19.7005 55.7013 19.7005C53.9509 19.7005 52.6929 21.2064 52.6929 23.6158V23.7398C52.6929 26.1492 53.9692 27.6728 55.7195 27.6728C57.4516 27.6728 58.6915 26.1669 58.6915 23.7575H58.7097ZM50.0309 23.8107V23.5981C50.0309 19.9308 52.4012 17.362 55.7378 17.362C59.0744 17.362 61.4082 19.9131 61.4082 23.5627V23.7752C61.4082 27.4248 59.0379 30.0114 55.7013 30.0114C52.3647 30.0114 50.0309 27.4602 50.0309 23.8107Z" fill="white"/>
<path d="M66.878 23.8107C68.2272 23.8107 68.9748 22.978 68.9748 21.8442V21.8265C68.9748 20.5509 68.2272 19.8422 66.8415 19.8422H65.4194V23.793H66.878V23.8107ZM62.8121 17.5746H67.0056C69.8317 17.5746 71.6003 19.169 71.6003 21.7733V21.8087C71.6003 24.6256 69.54 26.0429 66.8962 26.0961H65.4194V29.8165H62.8121V17.5923V17.5746Z" fill="white"/>
<path d="M72.6578 17.5746H75.3927L78.2006 22.5351L80.9537 17.5746H83.7069V29.8165H81.1543V22.0036L78.2006 27.0528H78.1459L75.1921 22.0391V29.8165H72.6578V17.5746Z" fill="white"/>
<path d="M85.5666 17.5746H93.6802V19.8777H88.1556V22.4997H93.0056V24.7851H88.1556V27.5311H93.7531V29.8165H85.5666V17.5746Z" fill="white"/>
<path d="M95.1389 17.5746H97.5274L102.341 24.7142V17.5746H104.893V29.8165H102.669L97.6914 22.4111V29.8165H95.1389V17.5746Z" fill="white"/>
<path d="M109.16 19.9308H105.987V17.5746H114.921V19.9308H111.749V29.8165H109.16V19.9308Z" fill="white"/>
<path d="M0 11.8168L1.69565 9.76167C2.62553 10.5412 3.73773 11.2676 5.12342 11.2676C6.23562 11.2676 6.89201 10.7361 6.89201 9.93884V9.92112C6.89201 9.2479 6.49088 8.82271 4.52174 8.09634C2.07854 7.17509 0.565217 6.27156 0.565217 3.96845V3.93301C0.565217 1.59447 2.42496 0 5.08696 0C6.70968 0 8.29593 0.531488 9.554 1.64761L7.94951 3.75585C7.07433 3.06492 6.07153 2.51571 5.01403 2.51571C4.02945 2.51571 3.42777 2.99405 3.42777 3.68499V3.7027C3.42777 4.4645 3.90182 4.83655 6.0533 5.68693C8.46003 6.60817 9.75456 7.60029 9.75456 9.69081V9.72624C9.75456 12.2065 7.80365 13.7478 5.12342 13.7478C3.37307 13.7478 1.53156 13.1455 0.0182328 11.7636L0 11.8168Z" fill="white"/>
<path d="M10.9397 8.39752V0.194878H13.8022V8.41523C13.8022 10.3109 14.7321 11.2498 16.209 11.2498C17.6858 11.2498 18.6157 10.3286 18.6157 8.46838V0.194878H21.46V8.32665C21.46 12.0294 19.3633 13.801 16.1725 13.801C13 13.801 10.9397 11.9939 10.9397 8.3798V8.39752Z" fill="white"/>
<path d="M22.317 11.8168L24.0126 9.76167C24.9425 10.5412 26.0547 11.2676 27.4404 11.2676C28.5343 11.2676 29.209 10.7361 29.209 9.93884V9.92112C29.209 9.2479 28.8078 8.82271 26.8387 8.09634C24.3955 7.17509 22.8822 6.27156 22.8822 3.96845V3.93301C22.8822 1.59447 24.7419 0 27.4039 0C29.0266 0 30.5947 0.531488 31.8527 1.64761L30.2482 3.75585C29.3913 3.06492 28.3703 2.51571 27.3127 2.51571C26.3282 2.51571 25.7083 2.99405 25.7083 3.68499V3.7027C25.7083 4.4645 26.1823 4.83655 28.3338 5.68693C30.7405 6.60817 32.0533 7.60029 32.0533 9.69081V9.72624C32.0533 12.2065 30.1024 13.7478 27.4221 13.7478C25.6718 13.7478 23.8303 13.1455 22.317 11.7636V11.8168Z" fill="white"/>
<path d="M35.7728 2.76374H32.3085V0.194878H42.0813V2.76374H38.6171V13.6061H35.7728V2.76374Z" fill="white"/>
<path d="M48.5905 8.23807L47.0954 3.86215L45.5638 8.23807H48.5905ZM45.7644 0.124016H48.4993L53.4404 13.6061H50.4867L49.4657 10.7006H44.7069L43.7041 13.6061H40.8233L45.7644 0.124016Z" fill="white"/>
<path d="M54.5344 0.194878H57.3969V13.6061H54.5344V0.194878Z" fill="white"/>
<path d="M59.5302 0.194878H62.1557L67.425 8.00776V0.194878H70.2328V13.6061H67.7896L62.3198 5.50976V13.6061H59.5302V0.194878Z" fill="white"/>
<path d="M78.9846 8.23807L77.4895 3.86215L75.9579 8.23807H78.9846ZM76.1585 0.124016H78.8934L83.8345 13.6061H80.8808L79.8598 10.7006H75.101L74.0982 13.6061H71.2174L76.1585 0.124016Z" fill="white"/>
<path d="M90.1066 8.00776H87.6087V11.1435H90.1613C91.4558 11.1435 92.2581 10.6121 92.2581 9.58451V9.56679C92.2581 8.61011 91.5288 8.02548 90.1066 8.02548V8.00776ZM91.6746 4.12789C91.6746 3.1535 90.9636 2.63973 89.742 2.63973H87.6087V5.66921H89.5961C90.8542 5.66921 91.6746 5.17315 91.6746 4.14561V4.12789ZM84.8373 0.177162H89.9607C91.4923 0.177162 92.7868 0.584637 93.5708 1.34644C94.1908 1.96651 94.5007 2.67516 94.5007 3.63184V3.68499C94.5007 5.26174 93.6073 6.0944 92.6227 6.62589C94.0996 7.17509 95.0842 8.06091 95.0842 9.81482V9.92112C95.0842 12.3305 93.0968 13.5884 90.0884 13.5884H84.8191V0.177162H84.8373Z" fill="white"/>
<path d="M96.4152 0.194878H99.2777V11.055H104.857V13.6061H96.4152V0.194878Z" fill="white"/>
<path d="M106.042 0.194878H114.94V2.71059H108.886V5.59834H114.21V8.11406H108.886V11.1081H115.013V13.6061H106.042V0.194878Z" fill="white"/>
<path d="M134.649 13.8187H148.324C148.087 24.4839 142.034 29.8519 133.865 29.8519C125.077 29.8519 119.461 22.6591 119.461 14.9348C119.461 7.21053 125.095 0.0177155 133.865 0.0177155C143.602 0.0177155 146.282 5.91724 147.376 8.98215L141.195 9.3542C140.137 6.82077 138.004 5.15544 133.865 5.15544C129.216 5.15544 125.606 8.82271 125.606 14.9525C125.606 20.1257 128.961 24.7496 134.266 24.7496C139.025 24.7496 141.231 21.4544 141.742 18.7438H134.649V13.8364V13.8187Z" fill="#4689C6"/>
<path d="M206.705 0.620068H212.595V23.9878H223.935V29.3204H206.705V0.620068Z" fill="#4689C6"/>
<path d="M240.473 8.18492C240.473 6.2007 238.522 4.97827 236.151 4.97827C233.198 4.97827 231.429 6.23613 231.429 8.14949C231.429 10.1337 233.398 11.0904 234.839 11.551L240.254 13.2341C244.192 14.4565 246.964 16.671 246.964 21.1001C246.964 24.6079 244.374 29.8696 236.206 29.8696C225.959 29.8696 225.011 23.4209 225.011 20.8521L230.9 20.7458C230.9 23.793 233.38 24.98 236.243 24.98C238.248 24.98 241.074 24.0233 241.074 21.8087C241.074 20.2851 240.4 19.4879 237.501 18.4604L231.065 16.2104C227.819 15.0766 225.54 12.2774 225.54 9.0353C225.54 5.38575 228.129 0.106297 235.787 0.106297C244.903 0.106297 246.344 5.9881 246.344 8.07862L240.454 8.18492H240.473Z" fill="#4689C6"/>
<path d="M157.732 11.4093C158.097 10.8069 158.534 10.2754 159.027 9.77939L154.742 5.20859C153.666 6.2007 152.736 7.36997 152.007 8.64555L157.714 11.3916L157.732 11.4093Z" fill="#5BB844"/>
<path d="M168.234 8.18492C168.891 8.46838 169.492 8.84043 170.021 9.28333L174.324 4.73025C173.194 3.77357 171.917 2.99405 170.513 2.42713L168.234 8.20264V8.18492Z" fill="#E2B82F"/>
<path d="M178.062 9.54908L172.373 12.3128C172.647 12.9329 172.847 13.5707 172.938 14.2616L179.265 13.677C179.064 12.2242 178.663 10.8246 178.043 9.54908H178.062Z" fill="#C11D2D"/>
<path d="M171.972 11.5156L177.661 8.75184C176.95 7.47627 176.056 6.32471 174.999 5.31488L170.696 9.86797C171.188 10.364 171.607 10.9132 171.954 11.5156H171.972Z" fill="#499C44"/>
<path d="M156.602 15.4486C156.602 15.3246 156.602 15.2006 156.602 15.0766L150.275 14.5274C150.257 14.8285 150.238 15.1474 150.238 15.4486C150.238 16.6356 150.384 17.7694 150.658 18.8678L156.784 17.1671C156.656 16.6179 156.583 16.0332 156.583 15.4486H156.602Z" fill="#3F7E44"/>
<path d="M171.17 20.4977C170.732 21.0292 170.203 21.5076 169.62 21.915L172.957 27.1768C174.196 26.3618 175.309 25.3697 176.238 24.2182L171.17 20.4977Z" fill="#F9C116"/>
<path d="M173.029 15.4486C173.029 16.0155 172.957 16.6002 172.847 17.1494L178.955 18.8501C179.229 17.7517 179.374 16.6179 179.374 15.4486C179.374 15.1651 179.374 14.864 179.338 14.5805L173.011 15.1651C173.011 15.2537 173.011 15.36 173.011 15.4486H173.029Z" fill="#EF3F28"/>
<path d="M158.571 20.6217L153.502 24.3599C154.45 25.476 155.562 26.4681 156.802 27.2654L160.139 22.0213C159.555 21.6316 159.027 21.1532 158.553 20.6217H158.571Z" fill="#F99C23"/>
<path d="M156.711 14.1907C156.821 13.4998 157.039 12.8266 157.313 12.2065L151.624 9.44278C150.986 10.7361 150.548 12.1534 150.366 13.6238L156.711 14.173V14.1907Z" fill="#1693D4"/>
<path d="M172.191 27.6551L168.854 22.3934C168.234 22.73 167.596 22.9957 166.903 23.1729L168.07 29.2496C169.529 28.913 170.914 28.3815 172.191 27.6551Z" fill="#A11844"/>
<path d="M172.592 17.9997C172.373 18.6375 172.081 19.2222 171.717 19.7891L176.785 23.5095C177.606 22.3579 178.262 21.0824 178.7 19.7182L172.592 18.0175V17.9997Z" fill="#28BCE2"/>
<path d="M165.992 23.3501C165.609 23.4032 165.208 23.4386 164.806 23.4386C164.478 23.4386 164.168 23.4209 163.84 23.3855L162.673 29.4622C163.366 29.5508 164.077 29.6039 164.806 29.6039C165.609 29.6039 166.393 29.533 167.158 29.409L165.992 23.3323V23.3501Z" fill="#EF6728"/>
<path d="M165.335 7.47627C166.046 7.52942 166.721 7.65343 167.377 7.86603L169.656 2.09052C168.289 1.61218 166.849 1.34644 165.335 1.29329V7.47627Z" fill="#E6233A"/>
<path d="M162.947 23.226C162.236 23.0666 161.561 22.8186 160.923 22.482L157.568 27.7437C158.863 28.4524 160.267 28.9838 161.762 29.3027L162.929 23.226H162.947Z" fill="#DD1667"/>
<path d="M162.345 7.8306C163.02 7.618 163.712 7.49399 164.424 7.47627V1.29329C162.892 1.32872 161.433 1.61218 160.048 2.07281L162.345 7.84831V7.8306Z" fill="#164967"/>
<path d="M158.006 19.9131C157.604 19.3462 157.276 18.7084 157.039 18.0352L150.931 19.7359C151.405 21.1532 152.08 22.4642 152.955 23.6512L158.024 19.9131H158.006Z" fill="#C6992D"/>
<path d="M159.719 9.17703C160.266 8.76956 160.85 8.41523 161.488 8.13177L159.191 2.37398C157.823 2.92319 156.565 3.7027 155.435 4.60623L159.719 9.17703Z" fill="#01679C"/>
<path d="M191.627 7.22824H191.554L187.762 18.5135H195.438L191.609 7.22824H191.627ZM197.042 23.2438H186.102L184.151 29.3204H177.697L188.6 0.230312H194.891L205.648 29.3204H199.066L197.042 23.2438Z" fill="#4689C6"/>
</svg>
