<svg width="324" height="183" viewBox="0 0 324 183" fill="none" xmlns="http://www.w3.org/2000/svg">
<g filter="url(#filter0_d_3640_1023)">
<path d="M68.656 155.009C66.1063 158.117 62.5207 160.507 57.8196 162.26C53.1185 164.013 47.9393 164.889 42.2024 164.889C36.2264 164.969 30.9675 163.694 26.4258 161.065C21.884 158.515 18.3781 154.69 15.9081 149.75C13.438 144.81 12.0834 138.914 12.0037 132.221V127.52C11.9241 120.587 13.1193 114.612 15.3503 109.512C17.661 104.413 21.0075 100.508 25.3899 97.7991C29.7723 95.09 34.8718 93.7354 40.8478 93.6557C49.0548 93.5761 55.5089 95.4884 60.21 99.3927C64.9111 103.297 67.6202 108.954 68.5764 116.444L54.6324 116.524C53.995 112.54 52.5607 109.671 50.3297 107.839C48.1783 106.006 45.1505 105.13 41.3259 105.13C36.4654 105.13 32.8002 107.042 30.2504 110.707C27.7007 114.372 26.5055 119.791 26.5055 127.042V131.504C26.5851 138.754 27.9397 144.252 30.7285 147.918C33.5173 151.583 37.5809 153.416 42.9195 153.416C48.258 153.416 52.0827 152.22 54.3934 149.91L54.3137 137.958L41.3259 138.037L41.2462 127.52L68.4967 127.36L68.656 155.009Z" fill="white"/>
<path d="M186.662 148.714L161.642 148.874L156.941 163.216L141.722 163.296L167.061 93.8151L180.287 93.7354L206.741 162.897L191.522 162.977L186.662 148.714ZM165.387 137.241L182.757 137.161L173.833 111.265L165.387 137.241Z" fill="white"/>
<path d="M225.227 151.264L255.585 151.025L255.664 162.499L211.044 162.818L210.566 93.4964L224.908 93.4167L225.227 151.264Z" fill="white"/>
<path d="M297.576 144.013C297.576 141.304 296.62 139.233 294.707 137.798C292.795 136.364 289.369 134.85 284.429 133.257C279.489 131.663 275.505 130.149 272.636 128.635C264.748 124.412 260.764 118.755 260.684 111.504C260.684 107.759 261.72 104.412 263.792 101.464C265.863 98.5162 268.891 96.2055 272.875 94.5322C276.78 92.8589 281.242 91.9824 286.182 91.9824C291.122 91.9824 295.584 92.7792 299.409 94.6119C303.313 96.3648 306.341 98.9146 308.492 102.181C310.643 105.448 311.759 109.114 311.759 113.337L297.496 113.416C297.496 110.229 296.46 107.759 294.468 106.006C292.476 104.253 289.608 103.377 286.022 103.456C282.516 103.456 279.807 104.253 277.895 105.687C275.983 107.201 275.027 109.114 275.027 111.504C275.027 113.735 276.222 115.647 278.453 117.161C280.763 118.675 284.11 120.109 288.492 121.384C296.62 123.775 302.596 126.802 306.341 130.388C310.086 133.974 311.998 138.515 311.998 143.854C312.078 149.83 309.767 154.611 305.305 158.037C300.763 161.463 294.707 163.216 286.979 163.296C281.64 163.296 276.78 162.419 272.397 160.427C268.015 158.515 264.668 155.886 262.357 152.459C260.047 149.113 258.852 145.129 258.852 140.667L273.194 140.587C273.274 148.236 277.815 152.061 286.979 151.981C290.405 151.981 293.034 151.264 294.947 149.83C296.62 148.475 297.576 146.483 297.576 144.013Z" fill="white"/>
<path d="M87.6454 103.344L97.8446 114.659L98.4803 115.365L97.8085 116.036C96.6756 117.168 95.6878 118.459 94.8475 119.834L94.3671 120.62L93.5448 120.206L79.9198 113.354L78.9823 112.882L79.4979 111.969C81.2991 108.776 83.5899 105.832 86.2069 103.296L86.951 102.575L87.6454 103.344Z" fill="#64B448" stroke="white" stroke-width="2"/>
<path d="M124.985 96.2427C128.428 97.7182 131.541 99.6848 134.324 102.058L135.112 102.73L134.413 103.494L124.133 114.729L123.473 115.451L122.738 114.806C121.558 113.774 120.134 112.944 118.666 112.249L117.825 111.85L118.161 110.983L123.659 96.8003L124.033 95.8345L124.985 96.2427Z" fill="#D09F29" stroke="white" stroke-width="2"/>
<path d="M143.59 114.281C145.066 117.56 146.047 121.08 146.538 124.676L146.678 125.708L145.641 125.806L130.503 127.24L129.552 127.33L129.418 126.386C129.192 124.811 128.741 123.3 128.131 121.852L127.767 120.986L128.608 120.568L142.233 113.796L143.164 113.333L143.59 114.281Z" fill="#C32033" stroke="white" stroke-width="2"/>
<path d="M136.044 103.615C138.669 106.158 140.882 109.109 142.603 112.304L143.093 113.215L142.168 113.675L128.542 120.447L127.702 120.865L127.231 120.053C126.405 118.625 125.422 117.411 124.338 116.25L123.708 115.574L124.331 114.892L134.61 103.658L135.305 102.898L136.044 103.615Z" fill="#2D9A47" stroke="white" stroke-width="2"/>
<path d="M92.285 129.193C92.285 130.632 92.4357 131.91 92.7362 133.187L92.955 134.114L92.0399 134.377L77.3788 138.6L76.369 138.891L76.1288 137.868C75.4771 135.098 75.0663 132.152 75.0663 129.193C75.0663 128.409 75.0653 127.554 75.1522 126.772L75.2606 125.799L76.2352 125.886L91.3739 127.241L92.285 127.323V129.193Z" fill="#48773C" stroke="white" stroke-width="2"/>
<path d="M126.791 140.908L138.902 150.151L139.716 150.771L139.077 151.57C136.787 154.432 134.084 156.973 131.047 159.025L130.182 159.61L129.635 158.719L121.667 145.732L121.195 144.962L121.912 144.414C123.198 143.431 124.345 142.287 125.433 141.044L126.048 140.34L126.791 140.908Z" fill="#FAB61B" stroke="white" stroke-width="2"/>
<path d="M146.78 126.931C146.867 127.712 146.866 128.485 146.866 129.193C146.866 132.154 146.455 135.021 145.804 137.789L145.562 138.811L144.554 138.52L129.892 134.297L128.965 134.03L129.199 133.093C129.495 131.909 129.647 130.557 129.647 129.193V127.566L130.553 127.48L145.691 126.046L146.672 125.954L146.78 126.931Z" fill="#E8422E" stroke="white" stroke-width="2"/>
<path d="M96.7577 141.306C97.806 142.579 99.0111 143.636 100.307 144.551L101.076 145.093L100.582 145.893L92.6141 158.801L92.0663 159.688L91.203 159.105C88.1842 157.065 85.3966 154.608 83.0936 151.73L82.452 150.927L83.2714 150.307L95.3827 141.144L96.1483 140.566L96.7577 141.306Z" fill="#F59C28" stroke="white" stroke-width="2"/>
<path d="M79.8577 113.557L93.4836 120.329L94.3245 120.747L93.9602 121.613C93.3413 123.083 92.8165 124.669 92.594 126.227L92.4592 127.165L91.5149 127.081L76.2961 125.727L75.2561 125.634L75.3938 124.599C75.8854 120.912 76.9508 117.306 78.51 114.023L78.9465 113.103L79.8577 113.557Z" fill="#027DBC" stroke="white" stroke-width="2"/>
<path d="M121.458 145.799L129.426 158.707L129.956 159.565L129.093 160.088C125.967 161.98 122.604 163.29 119.017 164.186L117.986 164.444L117.792 163.399L115.002 148.42L114.838 147.537L115.699 147.278C117.237 146.817 118.761 146.206 120.122 145.45L120.957 144.986L121.458 145.799Z" fill="#8F1839" stroke="white" stroke-width="2"/>
<path d="M129.889 134.527L144.47 138.75L145.47 139.039L145.141 140.027C143.998 143.456 142.443 146.651 140.392 149.604L139.799 150.459L138.968 149.83L126.856 140.667L126.115 140.107L126.62 139.326C127.455 138.036 128.136 136.673 128.667 135.157L128.98 134.264L129.889 134.527Z" fill="#01ADD8" stroke="white" stroke-width="2"/>
<path d="M114.818 148.452L117.607 163.432L117.791 164.427L116.794 164.6C114.902 164.929 112.933 165.093 110.966 165.093C109.152 165.093 107.429 164.928 105.725 164.685L104.693 164.537L104.883 163.511L107.672 148.531L107.84 147.628L108.755 147.72C109.568 147.801 110.23 147.874 110.966 147.874C111.944 147.874 112.765 147.799 113.67 147.648L114.638 147.487L114.818 148.452Z" fill="#ED6E28" stroke="white" stroke-width="2"/>
<path d="M112.284 93.3738C116.055 93.5377 119.576 94.2759 122.922 95.4187L123.908 95.7546L123.532 96.7263L118.034 110.909L117.678 111.826L116.755 111.486C115.347 110.967 113.775 110.666 112.193 110.591L111.241 110.545V93.3289L112.284 93.3738Z" fill="#E52330" stroke="white" stroke-width="2"/>
<path d="M102.109 145.678C103.552 146.437 105.146 147.044 106.735 147.422L107.662 147.643L107.487 148.58L104.698 163.48L104.508 164.497L103.498 164.272C99.8191 163.455 96.38 162.145 93.1843 160.342L92.2781 159.831L92.825 158.946L100.793 146.038L101.283 145.244L102.109 145.678Z" fill="#E01C83" stroke="white" stroke-width="2"/>
<path d="M111.01 110.545L110.057 110.591C108.477 110.666 106.885 110.967 105.357 111.426L104.471 111.691L104.137 110.83L98.6392 96.6462L98.2632 95.6755L99.2485 95.3386C102.598 94.1949 106.206 93.4551 109.988 93.3728L111.01 93.3503V110.545Z" fill="#1E3666" stroke="white" stroke-width="2"/>
<path d="M93.3494 135.251C93.8734 136.823 94.6259 138.257 95.5437 139.634L96.0623 140.412L95.3201 140.981L83.2888 150.224L82.4861 150.841L81.8796 150.031C79.6516 147.06 78.0103 143.69 76.866 140.094L76.5544 139.115L77.5408 138.83L92.1218 134.606L93.0457 134.34L93.3494 135.251Z" fill="#CD8B2A" stroke="white" stroke-width="2"/>
<path d="M98.4329 96.7206L103.931 110.903L104.281 111.809L103.386 112.186C101.964 112.785 100.611 113.611 99.4055 114.591L98.6741 115.185L98.0374 114.49L87.7581 103.255L87.0471 102.477L87.8606 101.807C90.634 99.5235 93.7461 97.5559 97.1174 96.1581L98.0627 95.7665L98.4329 96.7206Z" fill="#00568B" stroke="white" stroke-width="2"/>
<path d="M30.091 31.5852C30.091 30.4697 29.6926 29.5932 28.8958 28.9558C28.0991 28.3183 26.7445 27.6809 24.7525 27.0435C22.7605 26.406 21.1669 25.7686 19.892 25.1311C15.8284 23.1392 13.7567 20.3504 13.7567 16.8445C13.7567 15.0915 14.2348 13.5776 15.2706 12.223C16.3064 10.8685 17.7407 9.83263 19.5733 9.11551C21.4059 8.39839 23.5573 8 25.868 8C28.1787 8 30.1707 8.3984 32.0034 9.1952C33.836 9.99199 35.1905 11.1872 36.2264 12.7011C37.2622 14.215 37.7403 15.8883 37.7403 17.8803H30.1707C30.1707 16.6054 29.7723 15.5696 28.9755 14.8525C28.1787 14.1353 27.1429 13.8166 25.7883 13.8166C24.4338 13.8166 23.3183 14.1353 22.5215 14.6931C21.7247 15.3305 21.3263 16.0477 21.3263 17.0038C21.3263 17.8006 21.7247 18.5177 22.6011 19.2348C23.4776 19.8723 24.9915 20.5894 27.2226 21.3065C29.4536 22.0236 31.2066 22.7408 32.6408 23.6172C36.067 25.6092 37.7403 28.3183 37.7403 31.7446C37.7403 34.5334 36.7045 36.6847 34.6328 38.2783C32.5611 39.8719 29.6926 40.6687 26.0274 40.6687C23.4776 40.6687 21.1669 40.1906 19.0952 39.3141C17.0236 38.358 15.43 37.1628 14.3941 35.5692C13.3583 33.9756 12.8005 32.143 12.8005 30.0713H20.4498C20.4498 31.7446 20.9279 33.0194 21.8044 33.8162C22.6808 34.613 24.1151 35.0114 26.1071 35.0114C27.3819 35.0114 28.3381 34.7724 29.1349 34.2146C29.7723 33.3382 30.091 32.5414 30.091 31.5852Z" fill="white"/>
<path d="M66.903 8.3187V29.0354C66.903 31.3461 66.4249 33.4178 65.3891 35.1708C64.3533 36.9237 62.919 38.1986 61.0864 39.0751C59.2538 39.9516 57.0227 40.4296 54.473 40.4296C50.6483 40.4296 47.6205 39.3938 45.3895 37.4018C43.1585 35.4098 42.0429 32.7007 41.9633 29.1948V8.3187H49.6125V29.3542C49.6922 32.7804 51.2858 34.5333 54.473 34.5333C56.0666 34.5333 57.2618 34.1349 58.0586 33.2585C58.8554 32.382 59.2538 30.9477 59.2538 29.0354V8.39837H66.903V8.3187Z" fill="white"/>
<path d="M88.4963 31.5852C88.4963 30.4697 88.0979 29.5932 87.3011 28.9558C86.5043 28.3183 85.1498 27.6809 83.1578 27.0435C81.1658 26.406 79.5722 25.7686 78.2973 25.1311C74.2336 23.1392 72.162 20.3504 72.162 16.8445C72.162 15.0915 72.6401 13.5776 73.6759 12.223C74.7117 10.8685 76.146 9.83263 77.9786 9.11551C79.8112 8.39839 81.9626 8 84.2733 8C86.584 8 88.576 8.3984 90.4086 9.1952C92.2413 9.99199 93.5958 11.1872 94.6317 12.7011C95.6675 14.215 96.1456 15.8883 96.1456 17.8803H88.576C88.576 16.6054 88.1776 15.5696 87.3808 14.8525C86.584 14.1353 85.5482 13.8166 84.1936 13.8166C82.8391 13.8166 81.7235 14.1353 80.9268 14.6931C80.13 15.3305 79.7316 16.0477 79.7316 17.0038C79.7316 17.8006 80.1299 18.5177 81.0064 19.2348C81.8829 19.8723 83.3968 20.5894 85.6279 21.3065C87.7792 22.0236 89.6118 22.7408 91.0461 23.6172C94.4723 25.6092 96.1456 28.3183 96.1456 31.7446C96.1456 34.5334 95.1097 36.6847 93.0381 38.2783C90.9664 39.8719 88.0979 40.6687 84.4327 40.6687C81.8829 40.6687 79.5722 40.1906 77.5005 39.3141C75.4288 38.358 73.8352 37.1628 72.7994 35.5692C71.7636 33.9756 71.2058 32.143 71.2058 30.0713H78.8551C78.8551 31.7446 79.3331 33.0194 80.2096 33.8162C81.0861 34.613 82.5203 35.0114 84.5123 35.0114C85.7872 35.0114 86.7434 34.7724 87.5402 34.2146C88.0979 33.3382 88.4963 32.5414 88.4963 31.5852Z" fill="white"/>
<path d="M125.308 14.215H115.827V40.0312H108.177V14.215H98.8547V8.3187H125.308V14.215Z" fill="white"/>
<path d="M144.352 34.0552H133.914L132.081 39.9516H123.874L135.507 8.3187H142.679L154.391 39.9516H146.184L144.352 34.0552ZM135.667 28.2386H142.44L139.013 17.2428L135.667 28.2386Z" fill="white"/>
<path d="M165.228 8.3187H157.658V39.9516H165.228V8.3187Z" fill="white"/>
<path d="M197.419 40.0312H189.849L178.614 20.2707V40.0312H170.965V8.3187H178.614L189.849 28.0793V8.3187H197.419V40.0312Z" fill="white"/>
<path d="M221.083 34.0552H210.645L208.813 39.9516H200.685L212.319 8.3187H219.49L231.203 39.9516H222.996L221.083 34.0552ZM212.478 28.2386H219.251L215.824 17.2428L212.478 28.2386Z" fill="white"/>
<path d="M233.832 40.0313V8.39841H245.226C249.29 8.39841 252.398 9.11553 254.549 10.6294C256.7 12.1434 257.736 14.2947 257.736 17.1632C257.736 18.8365 257.338 20.191 256.621 21.3862C255.903 22.5814 254.788 23.3782 253.274 23.936C254.947 24.3344 256.222 25.2108 257.099 26.406C257.975 27.6012 258.453 29.0355 258.453 30.7884C258.453 33.8959 257.497 36.2066 255.505 37.8002C253.513 39.3938 250.645 40.1906 246.74 40.1906H233.832V40.0313ZM241.481 21.5456H245.465C247.139 21.5456 248.334 21.2268 249.051 20.6691C249.768 20.1113 250.087 19.1552 250.087 18.0397C250.087 16.6851 249.688 15.7289 248.971 15.1712C248.175 14.6134 246.979 14.2947 245.226 14.2947H241.481V21.5456ZM241.481 26.5654V34.135H246.501C247.856 34.135 248.971 33.8163 249.688 33.1788C250.406 32.5414 250.804 31.6649 250.804 30.5494C250.804 27.9199 249.529 26.5654 246.9 26.5654H241.481Z" fill="white"/>
<path d="M270.644 34.1349H283.951V40.0312H262.995V8.3187H270.644V34.1349Z" fill="white"/>
<path d="M307.217 26.5654H295.265V34.1349H309.448V40.0312H287.616V8.3187H309.448V14.215H295.265V20.9081H307.217V26.5654Z" fill="white"/>
<path d="M13.7567 82.8193V51.8239H23.7167C26.4258 51.8239 28.8959 52.4613 31.1269 53.6565C33.2783 54.9314 35.0312 56.6843 36.2264 58.9153C37.4216 61.1464 38.059 63.6961 38.059 66.5646V67.9988C38.059 70.8673 37.4216 73.4171 36.2264 75.6481C35.0312 77.8791 33.3579 79.6321 31.1269 80.907C28.9755 82.1818 26.5055 82.8193 23.7964 82.8193H13.7567ZM21.2466 57.5608V77.0823H23.876C26.0274 77.0823 27.7007 76.2855 28.8162 74.7716C29.9317 73.2577 30.5691 70.947 30.5691 67.9988V66.6443C30.5691 63.6165 30.0114 61.3854 28.8162 59.8715C27.7007 58.3576 26.0274 57.5608 23.7964 57.5608H21.2466Z" fill="white"/>
<path d="M59.5726 69.6721H48.5768V77.0823H61.6443V82.8193H41.0869V51.8239H61.724V57.5608H48.5768V64.0945H59.5726V69.6721Z" fill="white"/>
<path d="M78.0583 74.3732L84.2733 51.8239H92.6397L82.2016 82.8193H73.9946L63.6362 51.8239H71.9229L78.0583 74.3732Z" fill="white"/>
<path d="M113.197 69.6721H102.361V77.0823H115.348V82.8193H94.8707V51.8239H115.348V57.5608H102.361V64.0945H113.197V69.6721Z" fill="white"/>
<path d="M125.388 77.0823H137.181V82.8193H117.898V51.8239H125.388V77.0823Z" fill="white"/>
<path d="M165.069 67.9191C165.069 70.947 164.511 73.6561 163.395 75.9668C162.28 78.2775 160.686 80.1102 158.614 81.3053C156.543 82.5802 154.232 83.2177 151.523 83.2177C148.894 83.2177 146.503 82.5802 144.511 81.385C142.439 80.1898 140.846 78.4369 139.73 76.2058C138.615 73.9748 137.977 71.3454 137.898 68.3972V66.6443C137.898 63.6164 138.455 60.9073 139.571 58.5966C140.687 56.2859 142.28 54.4533 144.352 53.1784C146.423 51.9035 148.814 51.2661 151.443 51.2661C154.073 51.2661 156.383 51.9035 158.455 53.1784C160.527 54.4533 162.12 56.2062 163.236 58.5169C164.351 60.8276 164.989 63.4571 164.989 66.4849V67.9191H165.069ZM157.419 66.6443C157.419 63.5368 156.941 61.2261 155.905 59.6325C154.869 58.0389 153.435 57.2421 151.523 57.2421C147.778 57.2421 145.786 60.0308 145.547 65.6881V67.9988C145.547 71.0267 146.025 73.3374 147.061 75.0107C148.097 76.6042 149.531 77.4807 151.523 77.4807C153.435 77.4807 154.869 76.6839 155.905 75.0903C156.941 73.4967 157.419 71.186 157.499 68.1582V66.6443H157.419Z" fill="white"/>
<path d="M175.506 72.3015V82.8193H168.017V51.8239H180.367C182.757 51.8239 184.829 52.2223 186.662 53.0987C188.494 53.9752 189.929 55.2501 190.885 56.8437C191.921 58.4373 192.399 60.2699 192.399 62.3416C192.399 65.3694 191.283 67.7598 189.132 69.5924C186.98 71.4251 184.032 72.3015 180.208 72.3015H175.506ZM175.506 66.4849H180.367C181.801 66.4849 182.917 66.0865 183.714 65.3694C184.51 64.6523 184.829 63.6165 184.829 62.3416C184.829 60.9073 184.431 59.7122 183.634 58.8357C182.837 57.9592 181.801 57.5608 180.447 57.4811H175.427V66.4849H175.506Z" fill="white"/>
<path d="M204.988 51.8239L211.92 73.4171L218.773 51.8239H228.653V82.8193H221.163V75.5684L221.88 60.748L214.39 82.8193H209.45L201.881 60.748L202.598 75.5684V82.8193H195.188V51.8239H204.988Z" fill="white"/>
<path d="M250.485 69.6721H239.41V77.0823H252.557V82.8193H232V51.8239H252.637V57.5608H239.41V64.0945H250.485V69.6721Z" fill="white"/>
<path d="M281.002 82.8193H273.592L262.596 63.5368V82.8193H255.107V51.8239H262.596L273.513 71.1063V51.8239H281.002V82.8193Z" fill="white"/>
<path d="M309.448 57.5608H300.126V82.8193H292.636V57.5608H283.552V51.8239H309.448V57.5608Z" fill="white"/>
</g>
<defs>
<filter id="filter0_d_3640_1023" x="0" y="0" width="324" height="182.093" filterUnits="userSpaceOnUse" color-interpolation-filters="sRGB">
<feFlood flood-opacity="0" result="BackgroundImageFix"/>
<feColorMatrix in="SourceAlpha" type="matrix" values="0 0 0 0 0 0 0 0 0 0 0 0 0 0 0 0 0 0 127 0" result="hardAlpha"/>
<feOffset dy="4"/>
<feGaussianBlur stdDeviation="6"/>
<feComposite in2="hardAlpha" operator="out"/>
<feColorMatrix type="matrix" values="0 0 0 0 0 0 0 0 0 0 0 0 0 0 0 0 0 0 0.15 0"/>
<feBlend mode="normal" in2="BackgroundImageFix" result="effect1_dropShadow_3640_1023"/>
<feBlend mode="normal" in="SourceGraphic" in2="effect1_dropShadow_3640_1023" result="shape"/>
</filter>
</defs>
</svg>
